# xmcd
#
# Track frame offsets:
#	150
#	18138
#	37170
#	53034
#	72180
#	91908
#	109725
#	137895
#	156028
#	172684
#	194124
#	215460
#	232208
#	257194
#	274345
#	290922
#	310121
#
# Disc length: 4408 seconds
#
# Revision: 1
# Processed by: cddbd v1.5.2PL0 Copyright (c) Steve Scherf et al.
# Submitted via: audiograbber 1.82.01
#
DISCID=01113611
DTITLE=MPeople - The best of
DYEAR=1900
DGENRE=
TTITLE0=Testify
TTITLE1=Search for the hero
TTITLE2=Moving on up
TTITLE3=Angel st
TTITLE4=One night in heaven
TTITLE5=Itchycoo Park
TTITLE6=Sight for sore eyes
TTITLE7=Just for you
TTITLE8=Colour my life
TTITLE9=Hove can i love you more
TTITLE10=Dreaming
TTITLE11=Open your heart
TTITLE12=Don't look any further
TTITLE13=Someday
TTITLE14=Renaissance
TTITLE15=Fantasy Island
TTITLE16=What a fool believes
EXTD=
EXTT0=
EXTT1=
EXTT2=
EXTT3=
EXTT4=
EXTT5=
EXTT6=
EXTT7=
EXTT8=
EXTT9=
EXTT10=
EXTT11=
EXTT12=
EXTT13=
EXTT14=
EXTT15=
EXTT16=
PLAYORDER=
